<svg width="12" height="13" viewBox="0 0 12 13" fill="none" xmlns="http://www.w3.org/2000/svg">
<path d="M4.31223 2.17833C4.66107 1.15749 6.07157 1.12658 6.48515 2.08558L6.52015 2.17891L6.9909 3.55558C7.09878 3.87129 7.27312 4.16021 7.50215 4.40282C7.73118 4.64544 8.00958 4.83612 8.31857 4.96199L8.44515 5.00924L9.82182 5.47941C10.8427 5.82824 10.8736 7.23874 9.91515 7.65233L9.82182 7.68733L8.44515 8.15808C8.12932 8.26589 7.8403 8.44019 7.59758 8.66923C7.35486 8.89826 7.16409 9.1767 7.03815 9.48574L6.9909 9.61174L6.52073 10.989C6.1719 12.0098 4.7614 12.0407 4.3484 11.0823L4.31223 10.989L3.84207 9.61232C3.73425 9.2965 3.55995 9.00747 3.33092 8.76475C3.10188 8.52203 2.82345 8.33126 2.5144 8.20533L2.3884 8.15808L1.01173 7.68791C-0.00968331 7.33908 -0.0405999 5.92858 0.9184 5.51557L1.01173 5.47941L2.3884 5.00924C2.70412 4.90136 2.99303 4.72702 3.23565 4.49799C3.47826 4.26896 3.66894 3.99056 3.79482 3.68158L3.84207 3.55558L4.31223 2.17833ZM10.0831 0.166992C10.1923 0.166992 10.2992 0.197605 10.3918 0.255351C10.4844 0.313097 10.559 0.39566 10.607 0.493659L10.635 0.561909L10.8391 1.16041L11.4382 1.36458C11.5476 1.40173 11.6435 1.47052 11.7137 1.56222C11.7839 1.65392 11.8254 1.7644 11.8327 1.87967C11.8401 1.99494 11.8131 2.1098 11.7551 2.2097C11.6971 2.3096 11.6108 2.39004 11.5071 2.44083L11.4382 2.46883L10.8397 2.67299L10.6356 3.27208C10.5983 3.38141 10.5295 3.47723 10.4378 3.5474C10.346 3.61758 10.2355 3.65894 10.1203 3.66625C10.005 3.67356 9.89017 3.64648 9.79031 3.58846C9.69044 3.53044 9.61005 3.44408 9.55932 3.34033L9.53132 3.27208L9.32715 2.67358L8.72807 2.46941C8.6187 2.43225 8.52283 2.36347 8.4526 2.27177C8.38237 2.18007 8.34094 2.06958 8.33357 1.95431C8.3262 1.83905 8.35321 1.72418 8.41119 1.62428C8.46916 1.52438 8.55549 1.44394 8.65923 1.39316L8.72807 1.36516L9.32657 1.16099L9.53073 0.561909C9.57007 0.446657 9.64449 0.346606 9.74355 0.275783C9.84262 0.204961 9.96137 0.166919 10.0831 0.166992Z" fill="#0955B7"/>
</svg>
