<svg width="20" height="21" viewBox="0 0 20 21" fill="none" xmlns="http://www.w3.org/2000/svg">
<path d="M1.6665 12.1667C1.6665 9.02397 1.6665 7.45262 2.64281 6.47631C3.61913 5.5 5.19047 5.5 8.33317 5.5H11.6665C14.8092 5.5 16.3805 5.5 17.3569 6.47631C18.3332 7.45262 18.3332 9.02397 18.3332 12.1667C18.3332 15.3094 18.3332 16.8807 17.3569 17.857C16.3805 18.8333 14.8092 18.8333 11.6665 18.8333H8.33317C5.19047 18.8333 3.61913 18.8333 2.64281 17.857C1.6665 16.8807 1.6665 15.3094 1.6665 12.1667Z" stroke="#0955B7"/>
<path d="M13.3332 5.50033C13.3332 3.92898 13.3332 3.1433 12.845 2.65515C12.3569 2.16699 11.5712 2.16699 9.99984 2.16699C8.42849 2.16699 7.64281 2.16699 7.15466 2.65515C6.6665 3.1433 6.6665 3.92898 6.6665 5.50033" stroke="#0955B7"/>
<path d="M11.25 12.167H8.75M10 10.917V13.417" stroke="#0955B7" stroke-linecap="round"/>
<circle cx="9.99984" cy="12.1663" r="3.33333" stroke="#0955B7"/>
</svg>
